<svg id="eTSXlchDVBA1" xmlns="http://www.w3.org/2000/svg" xmlns:xlink="http://www.w3.org/1999/xlink" viewBox="0 0 69 69" shape-rendering="geometricPrecision" text-rendering="geometricPrecision">

<g transform="matrix(.1 0 0-.1 0 69)"><g id="eTSXlchDVBA3_to" transform="translate(-0.010712,696.892899)"><path d="M252,374c-91-66-132-101-130-113c2-9,12-16,23-15c31,0,277,183,273,203-6,33-36,19-166-75Zm48-4c-8-5-19-10-25-10-5,0-3,5,5,10s20,10,25,10c6,0,3-5-5-10Zm-30-24c0-2-7-7-16-10-8-3-12-2-9,4c6,10,25,14,25,6Z" transform="translate(-269.989288,-355.533859)"/></g><g id="eTSXlchDVBA4_to" transform="translate(759.510401,-81.943953)"><path d="M417,403c-14-14-5-32,44-94c59-74,69-82,86-67c20,16,17,25-43,99-53,65-71,78-87,62ZM530,268c0-13-23,12-61,67-15,22-10,19,20-12c23-23,41-48,41-55Z" transform="translate(-484.556396,-322.461502)"/></g><g id="eTSXlchDVBA5_to" transform="translate(-1.376145,-0.079324)"><path d="M327,313c-48-36-58-65-25-71c19-4,107,57,108,74c0,11-20,34-29,34-4,0-28-17-54-37Z" transform="translate(-346.356705,-295.906036)"/></g><g id="eTSXlchDVBA6_to" transform="translate(433.02404,-29.6879)"><path d="M411,276c-15-18-3-46,20-46c25,0,35,26,19,45-15,19-24,19-39,1Z" transform="translate(-431.04213,-259.687895)"/></g></g></svg>
